<svg xmlns="http://www.w3.org/2000/svg" xmlns:xlink="http://www.w3.org/1999/xlink" width="191" height="191" viewBox="0 0 191 191">
  <defs>
    <clipPath id="clip-Gaming">
      <rect width="191" height="191"/>
    </clipPath>
  </defs>
  <g id="Gaming" clip-path="url(#clip-Gaming)">
    <rect width="191" height="191" fill="#fff"/>
    <path id="Path_46766" data-name="Path 46766" d="M130.684,36.064c16.492,15.842,34.033,31.684,43.2,55.449a59.1,59.1,0,0,1,4.713,24.423,52.335,52.335,0,0,1-12.58,30.7c-16.755,20.464-42.149,26.4-65.185,22.113S56.6,150.934,36.439,136.074C23.859,126.831,11.045,116.6,4.5,100.427-4.393,78.64.58,50.916,13.4,32.433S35.129-2.885,64.189.417C83.3,2.4,105.814,12.3,130.684,36.064Z" transform="translate(190.717 14.66) rotate(95)" fill="#fae0d7"/>
    <g id="Group_17574" data-name="Group 17574" transform="translate(24.065 18.034)">
      <path id="Path_91234" data-name="Path 91234" d="M36.882,23.015A27.224,27.224,0,0,1,51.1,26.807a32.6,32.6,0,0,0,16.827,4.5h.711a35.047,35.047,0,0,0,16.116-4.5,25.18,25.18,0,0,1,14.22-3.792,16.709,16.709,0,0,1,9.954,5.451,65.166,65.166,0,0,1,11.376,15.168,89.251,89.251,0,0,1,12.561,41.712,21.328,21.328,0,0,1-3.318,12.561,9.245,9.245,0,0,1-8.058,4.5c-11.85,0-20.382-5.925-28.2-12.087-8.058-6.4-15.642-13.272-25.6-13.272S50.154,84.16,42.1,90.322c-8.058,6.4-16.59,12.087-28.2,12.087a9.536,9.536,0,0,1-8.058-4.5A21.328,21.328,0,0,1,2.517,85.345a95.367,95.367,0,0,1,12.8-41.712A70.541,70.541,0,0,1,26.691,28.466,18.02,18.02,0,0,1,36.882,23.015Z" transform="translate(3.421 31.495)" fill="#67c7c5"/>
      <g id="Group_12546" data-name="Group 12546" transform="translate(-0.009 0)">
        <path id="Path_91235" data-name="Path 91235" d="M48.336,43.661h0A6.119,6.119,0,0,0,54.5,37.5,6.475,6.475,0,0,0,52.6,33a5.935,5.935,0,0,0-4.266-1.9H48.1A6.368,6.368,0,0,0,43.6,42,8.82,8.82,0,0,0,48.336,43.661Z" transform="translate(57.151 42.607)" fill="#b0dfe0"/>
        <path id="Path_91236" data-name="Path 91236" d="M28.812,32.3H19.095v8.532H10.8v9.717h8.295v8.532h9.717V50.549h8.532V40.832H28.812Z" transform="translate(14.818 44.251)" fill="#fff"/>
        <path id="Path_91237" data-name="Path 91237" d="M43.4,35.9h0a6.164,6.164,0,1,0,5.925,6.162A5.782,5.782,0,0,0,43.4,35.9Z" transform="translate(50.712 49.183)" fill="#b0dfe0"/>
        <path id="Path_91238" data-name="Path 91238" d="M129.414,71.811a71.2,71.2,0,0,0-12.561-16.59,22.219,22.219,0,0,0-14.22-7.11,34.542,34.542,0,0,0-17.3,4.74,26.19,26.19,0,0,1-10.191,3.555,26.44,26.44,0,0,1,7.11-17.064,48.215,48.215,0,0,1,17.3-10.665,150,150,0,0,0,18.96-8.532,18.875,18.875,0,0,0,9.954-16.59A3.443,3.443,0,0,0,125.148,0H124.2a3.8,3.8,0,0,0-2.607,3.318,11.673,11.673,0,0,1-6.873,10.665,122.765,122.765,0,0,1-18.012,8.058A55.194,55.194,0,0,0,77.038,34.365a35.611,35.611,0,0,0-9.243,22.041,29.523,29.523,0,0,1-10.9-3.555,33.9,33.9,0,0,0-17.3-4.74,21.674,21.674,0,0,0-14.22,7.11,71.2,71.2,0,0,0-12.561,16.59,102.886,102.886,0,0,0-12.8,45.03,27.7,27.7,0,0,0,4.5,16.116,15.4,15.4,0,0,0,13.035,7.11c13.746,0,23.937-6.873,32.232-13.509l1.9-1.422c7.11-5.688,13.509-10.665,19.671-10.665,6.4,0,12.561,4.977,19.671,10.665l1.9,1.422c8.295,6.636,18.486,13.509,32.232,13.509a15.974,15.974,0,0,0,13.035-7.11,27.7,27.7,0,0,0,4.5-16.116A94.729,94.729,0,0,0,129.414,71.811Zm6.636,45.03a21.054,21.054,0,0,1-3.318,12.324,8.728,8.728,0,0,1-7.347,4.029h0c-11.613,0-19.908-5.688-27.966-12.087l-2.844-2.133C87.7,113.522,80.592,107.6,71.587,107.6S55.471,113.285,48.6,118.973l-2.844,2.133c-8.058,6.4-16.353,12.087-27.966,12.087h0a8.672,8.672,0,0,1-7.347-4.029A22.416,22.416,0,0,1,7.123,116.84,85.457,85.457,0,0,1,19.447,75.366,63.857,63.857,0,0,1,30.823,60.435a15.869,15.869,0,0,1,9.48-5.214,26.993,26.993,0,0,1,13.983,3.792,33.9,33.9,0,0,0,17.3,4.74h.948a36.27,36.27,0,0,0,16.353-4.74A24.792,24.792,0,0,1,102.4,55.221h.237a15.8,15.8,0,0,1,9.717,5.214,69.178,69.178,0,0,1,11.376,14.931A93.826,93.826,0,0,1,136.05,116.84Z" transform="translate(0.009 0)" fill="#1b324b"/>
        <path id="Path_91239" data-name="Path 91239" d="M53,35.9h0a6.164,6.164,0,1,0,5.925,6.162A5.921,5.921,0,0,0,53,35.9Z" transform="translate(63.864 49.183)" fill="#b0dfe0"/>
        <path id="Path_91240" data-name="Path 91240" d="M48.2,40.7h0a6.326,6.326,0,0,0-6.4,6.162,6.119,6.119,0,0,0,6.162,6.162,6.274,6.274,0,0,0,6.162-6.162A5.921,5.921,0,0,0,48.2,40.7Z" transform="translate(57.288 55.759)" fill="#b0dfe0"/>
      </g>
    </g>
  </g>
</svg>
